<svg width="112" height="96" viewBox="0 0 112 96" fill="none" xmlns="http://www.w3.org/2000/svg">
<mask id="mask0_13_27" style="mask-type:alpha" maskUnits="userSpaceOnUse" x="4" y="4" width="104" height="88">
<path d="M108 4H4V92H108V4Z" fill="url(#paint0_radial_13_27)"/>
</mask>
<g mask="url(#mask0_13_27)">
<g opacity="0.1" filter="url(#filter0_f_13_27)">
<path d="M56 89C78.0914 89 96 71.0914 96 49C96 26.9086 78.0914 9 56 9C33.9086 9 16 26.9086 16 49C16 71.0914 33.9086 89 56 89Z" stroke="#111827" stroke-width="2"/>
</g>
<g opacity="0.1" filter="url(#filter1_f_13_27)">
<path d="M56 97C82.5097 97 104 75.5097 104 49C104 22.4903 82.5097 1 56 1C29.4903 1 8 22.4903 8 49C8 75.5097 29.4903 97 56 97Z" stroke="#111827" stroke-width="2"/>
</g>
<g opacity="0.1" filter="url(#filter2_f_13_27)">
<path d="M56 81C73.6731 81 88 66.6731 88 49C88 31.3269 73.6731 17 56 17C38.3269 17 24 31.3269 24 49C24 66.6731 38.3269 81 56 81Z" stroke="#111827" stroke-width="2"/>
</g>
<g opacity="0.1" filter="url(#filter3_f_13_27)">
<path d="M56 73C69.2548 73 80 62.2548 80 49C80 35.7452 69.2548 25 56 25C42.7452 25 32 35.7452 32 49C32 62.2548 42.7452 73 56 73Z" stroke="#111827" stroke-width="2"/>
</g>
<g opacity="0.1" filter="url(#filter4_f_13_27)">
<path d="M56 65C64.8366 65 72 57.8366 72 49C72 40.1634 64.8366 33 56 33C47.1634 33 40 40.1634 40 49C40 57.8366 47.1634 65 56 65Z" stroke="#111827" stroke-width="2"/>
</g>
<g opacity="0.2" filter="url(#filter5_f_13_27)">
<path d="M34 71H78L83.1056 60.7889C84.4354 58.1292 82.5014 55 79.5279 55H32.4721C29.4986 55 27.5646 58.1292 28.8944 60.7889L34 71Z" fill="#3EE4DA"/>
</g>
<g filter="url(#filter6_dd_13_27)">
<path d="M80 27H32C29.7909 27 28 28.7909 28 31V63C28 65.2091 29.7909 67 32 67H80C82.2091 67 84 65.2091 84 63V31C84 28.7909 82.2091 27 80 27Z" fill="white"/>
<path d="M80 26.5H32C29.5147 26.5 27.5 28.5147 27.5 31V63C27.5 65.4853 29.5147 67.5 32 67.5H80C82.4853 67.5 84.5 65.4853 84.5 63V31C84.5 28.5147 82.4853 26.5 80 26.5Z" stroke="#121826" stroke-opacity="0.08"/>
</g>
<path d="M83 35L36 66H80C81.6569 66 83 64.6569 83 63V35Z" fill="#F3F4F6"/>
<path d="M30 47H82" stroke="#3EE4DA" stroke-width="2"/>
<path d="M56 29V65" stroke="#3EE4DA" stroke-width="2"/>
<path d="M65.1213 42.1213C63.9497 43.2929 56.5 47.5 56 47C55.5 46.5 59.7071 39.0502 60.8787 37.8786C62.0503 36.7071 63.9497 36.7071 65.1213 37.8786C66.2929 39.0502 66.2929 40.9497 65.1213 42.1213Z" stroke="#3EE4DA" stroke-width="2"/>
<path d="M47 42.1213C48.1716 43.2929 55.5 47.5 56 47C56.5 46.5 52.4142 39.0502 51.2427 37.8786C50.0711 36.7071 48.1716 36.7071 47 37.8786C45.8284 39.0502 45.8284 40.9497 47 42.1213Z" stroke="#3EE4DA" stroke-width="2"/>
<path d="M61 52L56 47L51 52" stroke="#3EE4DA" stroke-width="2" stroke-linecap="round"/>
</g>
<defs>
<filter id="filter0_f_13_27" x="14.5" y="7.5" width="83" height="83" filterUnits="userSpaceOnUse" color-interpolation-filters="sRGB">
<feFlood flood-opacity="0" result="BackgroundImageFix"/>
<feBlend mode="normal" in="SourceGraphic" in2="BackgroundImageFix" result="shape"/>
<feGaussianBlur stdDeviation="0.25" result="effect1_foregroundBlur_13_27"/>
</filter>
<filter id="filter1_f_13_27" x="6.5" y="-0.5" width="99" height="99" filterUnits="userSpaceOnUse" color-interpolation-filters="sRGB">
<feFlood flood-opacity="0" result="BackgroundImageFix"/>
<feBlend mode="normal" in="SourceGraphic" in2="BackgroundImageFix" result="shape"/>
<feGaussianBlur stdDeviation="0.25" result="effect1_foregroundBlur_13_27"/>
</filter>
<filter id="filter2_f_13_27" x="22.5" y="15.5" width="67" height="67" filterUnits="userSpaceOnUse" color-interpolation-filters="sRGB">
<feFlood flood-opacity="0" result="BackgroundImageFix"/>
<feBlend mode="normal" in="SourceGraphic" in2="BackgroundImageFix" result="shape"/>
<feGaussianBlur stdDeviation="0.25" result="effect1_foregroundBlur_13_27"/>
</filter>
<filter id="filter3_f_13_27" x="30.5" y="23.5" width="51" height="51" filterUnits="userSpaceOnUse" color-interpolation-filters="sRGB">
<feFlood flood-opacity="0" result="BackgroundImageFix"/>
<feBlend mode="normal" in="SourceGraphic" in2="BackgroundImageFix" result="shape"/>
<feGaussianBlur stdDeviation="0.25" result="effect1_foregroundBlur_13_27"/>
</filter>
<filter id="filter4_f_13_27" x="38.5" y="31.5" width="35" height="35" filterUnits="userSpaceOnUse" color-interpolation-filters="sRGB">
<feFlood flood-opacity="0" result="BackgroundImageFix"/>
<feBlend mode="normal" in="SourceGraphic" in2="BackgroundImageFix" result="shape"/>
<feGaussianBlur stdDeviation="0.25" result="effect1_foregroundBlur_13_27"/>
</filter>
<filter id="filter5_f_13_27" x="16.467" y="43" width="79.0661" height="40" filterUnits="userSpaceOnUse" color-interpolation-filters="sRGB">
<feFlood flood-opacity="0" result="BackgroundImageFix"/>
<feBlend mode="normal" in="SourceGraphic" in2="BackgroundImageFix" result="shape"/>
<feGaussianBlur stdDeviation="6" result="effect1_foregroundBlur_13_27"/>
</filter>
<filter id="filter6_dd_13_27" x="22" y="24" width="68" height="52" filterUnits="userSpaceOnUse" color-interpolation-filters="sRGB">
<feFlood flood-opacity="0" result="BackgroundImageFix"/>
<feColorMatrix in="SourceAlpha" type="matrix" values="0 0 0 0 0 0 0 0 0 0 0 0 0 0 0 0 0 0 127 0" result="hardAlpha"/>
<feOffset dy="3"/>
<feGaussianBlur stdDeviation="2.5"/>
<feColorMatrix type="matrix" values="0 0 0 0 0.0705882 0 0 0 0 0.0941176 0 0 0 0 0.14902 0 0 0 0.04 0"/>
<feBlend mode="normal" in2="BackgroundImageFix" result="effect1_dropShadow_13_27"/>
<feColorMatrix in="SourceAlpha" type="matrix" values="0 0 0 0 0 0 0 0 0 0 0 0 0 0 0 0 0 0 127 0" result="hardAlpha"/>
<feOffset dy="2"/>
<feGaussianBlur stdDeviation="1.5"/>
<feColorMatrix type="matrix" values="0 0 0 0 0.0705882 0 0 0 0 0.0941176 0 0 0 0 0.14902 0 0 0 0.08 0"/>
<feBlend mode="normal" in2="effect1_dropShadow_13_27" result="effect2_dropShadow_13_27"/>
<feBlend mode="normal" in="SourceGraphic" in2="effect2_dropShadow_13_27" result="shape"/>
</filter>
<radialGradient id="paint0_radial_13_27" cx="0" cy="0" r="1" gradientUnits="userSpaceOnUse" gradientTransform="translate(56 48) rotate(90) scale(69 72.9204)">
<stop offset="0.231884" stop-color="#C4C4C4"/>
<stop offset="0.724638" stop-color="#C4C4C4" stop-opacity="0"/>
</radialGradient>
</defs>
</svg>
