<svg width="112" height="96" viewBox="0 0 112 96" fill="none" xmlns="http://www.w3.org/2000/svg">
<mask id="mask0_13_2" style="mask-type:alpha" maskUnits="userSpaceOnUse" x="3" y="4" width="104" height="88">
<path d="M107 4H3V92H107V4Z" fill="url(#paint0_radial_13_2)"/>
</mask>
<g mask="url(#mask0_13_2)">
<g opacity="0.1" filter="url(#filter0_f_13_2)">
<path d="M55 89C77.0914 89 95 71.0914 95 49C95 26.9086 77.0914 9 55 9C32.9086 9 15 26.9086 15 49C15 71.0914 32.9086 89 55 89Z" stroke="#111827" stroke-width="2"/>
</g>
<g opacity="0.1" filter="url(#filter1_f_13_2)">
<path d="M55 97C81.5097 97 103 75.5097 103 49C103 22.4903 81.5097 1 55 1C28.4903 1 7 22.4903 7 49C7 75.5097 28.4903 97 55 97Z" stroke="#111827" stroke-width="2"/>
</g>
<g opacity="0.1" filter="url(#filter2_f_13_2)">
<path d="M55 81C72.6731 81 87 66.6731 87 49C87 31.3269 72.6731 17 55 17C37.3269 17 23 31.3269 23 49C23 66.6731 37.3269 81 55 81Z" stroke="#111827" stroke-width="2"/>
</g>
<g opacity="0.1" filter="url(#filter3_f_13_2)">
<path d="M55 65C63.8366 65 71 57.8366 71 49C71 40.1634 63.8366 33 55 33C46.1634 33 39 40.1634 39 49C39 57.8366 46.1634 65 55 65Z" stroke="#111827" stroke-width="2"/>
</g>
<g filter="url(#filter4_dd_13_2)">
<path d="M55 73C68.2548 73 79 62.2548 79 49C79 35.7452 68.2548 25 55 25C41.7452 25 31 35.7452 31 49C31 62.2548 41.7452 73 55 73Z" fill="white"/>
<path d="M55 73.4443C68.5003 73.4443 79.4444 62.5002 79.4444 48.9999C79.4444 35.4997 68.5003 24.5555 55 24.5555C41.4997 24.5555 30.5556 35.4997 30.5556 48.9999C30.5556 62.5002 41.4997 73.4443 55 73.4443Z" stroke="#121826" stroke-opacity="0.08" stroke-width="0.888889"/>
</g>
<mask id="mask1_13_2" style="mask-type:alpha" maskUnits="userSpaceOnUse" x="33" y="27" width="44" height="44">
<path d="M55 71C67.1503 71 77 61.1503 77 49C77 36.8497 67.1503 27 55 27C42.8497 27 33 36.8497 33 49C33 61.1503 42.8497 71 55 71Z" fill="white"/>
</mask>
<g mask="url(#mask1_13_2)">
<path d="M44.0972 43.7028L46.0406 41.7594C46.2452 41.5548 46.5227 41.4398 46.812 41.4398H48.5072C48.9943 41.4398 49.4224 41.7627 49.5562 42.2311L49.7975 43.0755C49.8452 43.2427 49.8523 43.4188 49.8182 43.5892L49.4382 45.4897C49.3702 45.8294 49.4676 46.1811 49.7007 46.4374L51.2334 48.1235C51.6624 48.5954 51.5969 49.3331 51.0913 49.722L49.1164 51.2412C48.7574 51.5173 48.2652 51.5429 47.8795 51.3056L45.2599 49.6935C45.0963 49.5929 44.9622 49.4508 44.8711 49.2816L43.355 46.4661C43.2058 46.1889 43.1835 45.8607 43.2941 45.5659L43.8471 44.0911C43.9018 43.9453 43.9871 43.8129 44.0972 43.7028Z" fill="#E5E7EB"/>
<path d="M31.5503 45.8753L29.2375 46.409C28.7928 46.5117 28.4111 46.7953 28.1847 47.1916L26.737 49.725C26.5095 50.1233 26.4597 50.5985 26.5979 51.0359C27.3555 53.4332 28.5399 57.3223 28.5399 57.91C28.5399 58.4595 29.0577 61.1191 29.4346 62.9576C29.5485 63.5129 29.9444 63.9672 30.4775 64.1597L39.1254 67.2826C39.2677 67.334 39.4164 67.3654 39.5673 67.3759L50.9499 68.17H55.0009C55.6555 68.17 56.2471 67.7799 56.5049 67.1782L57.0691 65.8617C57.4197 65.0438 57.0523 64.0957 56.2422 63.7274L55.1552 63.2333C54.8772 63.107 54.6401 62.9054 54.4708 62.6513L52.5699 59.8L51.0968 58.0814C50.9993 57.9677 50.8867 57.8679 50.7621 57.7848L48.6616 56.3845C48.5674 56.3217 48.4669 56.2688 48.3617 56.2267L46.1454 55.3402C45.9308 55.2544 45.7005 55.215 45.4696 55.2246L40.8966 55.4151C40.0248 55.4515 39.2778 54.7973 39.1988 53.9284L38.863 50.2342C38.8227 49.7907 38.6033 49.3828 38.2556 49.1046L36.2892 47.5315C36.1637 47.4311 36.024 47.3497 35.8747 47.29L32.526 45.9504C32.216 45.8265 31.8755 45.8002 31.5503 45.8753Z" fill="#E5E7EB"/>
<path d="M58.3744 32.5843C59.3792 30.9518 60.8451 28.1744 61.5305 25.7338C61.9067 24.3943 63.7259 23.0549 65.0189 23.5686L81.0461 29.9355C81.3172 30.0432 81.5545 30.2214 81.7336 30.4517L86.6562 36.7807C86.9563 37.1665 87.0682 37.6663 86.9613 38.1432L83.7551 52.4476C83.6681 52.8359 83.4426 53.1791 83.1208 53.4131L81.2049 54.8065C80.85 55.0646 80.4063 55.1694 79.9734 55.0972L77.5587 54.6948C77.4599 54.6783 77.3627 54.6528 77.2685 54.6185L75.119 53.8369C74.6865 53.6796 74.3403 53.3476 74.1651 52.9221L72.7342 49.4471C72.614 49.1553 72.412 48.9044 72.1525 48.7248L69.4604 46.861C69.1867 46.6715 68.8618 46.57 68.5289 46.57H60.7226C60.3397 46.57 59.9691 46.4358 59.675 46.1907L54.1402 41.5785C53.825 41.3158 53.62 40.9443 53.5658 40.5376L53.2287 38.0098C53.1548 37.4556 53.369 36.902 53.7967 36.5418L58.0452 32.9642C58.1744 32.8554 58.2859 32.7281 58.3744 32.5843Z" fill="#E5E7EB"/>
<path d="M51.5807 25.5836L51.0986 24.3301C50.7048 23.3064 49.6123 22.7341 48.5465 22.9933L40.7425 24.8916C40.5288 24.9436 40.3242 25.0276 40.1356 25.1407L34.5483 28.4931C33.9919 28.8269 33.613 29.391 33.5144 30.0323L32.6569 35.6056C32.6128 35.8923 32.6263 36.185 32.6967 36.4665L33.0826 38.01C33.278 38.7917 33.8884 39.4021 34.6701 39.5975L36.3795 40.0249C36.5526 40.0682 36.7303 40.09 36.9087 40.09H38.8895C39.0097 40.09 39.1297 40.0801 39.2482 40.0604L41.8225 39.6313C42.1435 39.5778 42.4484 39.4532 42.715 39.2666L44.3838 38.0984C44.7893 37.8146 45.0862 37.4014 45.2258 36.9266L46.1031 33.9437C46.2676 33.3846 46.6488 32.9146 47.1619 32.6383L49.5123 31.3727C49.7488 31.2453 49.9597 31.0755 50.1345 30.8715L51.031 29.8257C51.3294 29.4775 51.5106 29.044 51.5487 28.587L51.7186 26.548C51.7459 26.2203 51.6988 25.8906 51.5807 25.5836Z" fill="#E5E7EB"/>
</g>
<g filter="url(#filter5_dd_13_2)">
<path fill-rule="evenodd" clip-rule="evenodd" d="M67.6629 27.6171C69.3784 26.4922 71.6962 26.9481 72.8398 28.6356L73.1723 29.1261C73.569 29.7114 74.4312 29.7114 74.8279 29.1261L75.1604 28.6356C76.304 26.9481 78.6217 26.4922 80.3372 27.6171C82.0527 28.742 82.5163 31.0219 81.3727 32.7093L74.813 41.8653C74.4141 42.4222 73.5861 42.4222 73.1872 41.8653L66.6275 32.7093C65.4838 31.0219 65.9474 28.742 67.6629 27.6171Z" fill="black"/>
<path d="M81.7791 33.0004L81.7792 33.0005L81.7865 32.9897C83.0885 31.0687 82.5578 28.4752 80.6114 27.1989C78.6699 25.9258 76.045 26.439 74.7464 28.3549L74.4139 28.8455C74.2156 29.1382 73.7844 29.1382 73.5861 28.8455L73.2536 28.3549C71.955 26.439 69.3301 25.9258 67.3886 27.1989C65.4422 28.4752 64.9115 31.0687 66.2135 32.9897L66.2133 32.9898L66.2209 33.0004L72.7806 42.1564C73.379 42.9917 74.621 42.9917 75.2194 42.1564L81.7791 33.0004Z" fill="black" stroke="black"/>
</g>
</g>
<defs>
<filter id="filter0_f_13_2" x="13.5" y="7.5" width="83" height="83" filterUnits="userSpaceOnUse" color-interpolation-filters="sRGB">
<feFlood flood-opacity="0" result="BackgroundImageFix"/>
<feBlend mode="normal" in="SourceGraphic" in2="BackgroundImageFix" result="shape"/>
<feGaussianBlur stdDeviation="0.25" result="effect1_foregroundBlur_13_2"/>
</filter>
<filter id="filter1_f_13_2" x="5.5" y="-0.5" width="99" height="99" filterUnits="userSpaceOnUse" color-interpolation-filters="sRGB">
<feFlood flood-opacity="0" result="BackgroundImageFix"/>
<feBlend mode="normal" in="SourceGraphic" in2="BackgroundImageFix" result="shape"/>
<feGaussianBlur stdDeviation="0.25" result="effect1_foregroundBlur_13_2"/>
</filter>
<filter id="filter2_f_13_2" x="21.5" y="15.5" width="67" height="67" filterUnits="userSpaceOnUse" color-interpolation-filters="sRGB">
<feFlood flood-opacity="0" result="BackgroundImageFix"/>
<feBlend mode="normal" in="SourceGraphic" in2="BackgroundImageFix" result="shape"/>
<feGaussianBlur stdDeviation="0.25" result="effect1_foregroundBlur_13_2"/>
</filter>
<filter id="filter3_f_13_2" x="37.5" y="31.5" width="35" height="35" filterUnits="userSpaceOnUse" color-interpolation-filters="sRGB">
<feFlood flood-opacity="0" result="BackgroundImageFix"/>
<feBlend mode="normal" in="SourceGraphic" in2="BackgroundImageFix" result="shape"/>
<feGaussianBlur stdDeviation="0.25" result="effect1_foregroundBlur_13_2"/>
</filter>
<filter id="filter4_dd_13_2" x="25.6667" y="22.3333" width="58.6666" height="58.6666" filterUnits="userSpaceOnUse" color-interpolation-filters="sRGB">
<feFlood flood-opacity="0" result="BackgroundImageFix"/>
<feColorMatrix in="SourceAlpha" type="matrix" values="0 0 0 0 0 0 0 0 0 0 0 0 0 0 0 0 0 0 127 0" result="hardAlpha"/>
<feOffset dy="2.66667"/>
<feGaussianBlur stdDeviation="2.22222"/>
<feColorMatrix type="matrix" values="0 0 0 0 0.0705882 0 0 0 0 0.0941176 0 0 0 0 0.14902 0 0 0 0.04 0"/>
<feBlend mode="normal" in2="BackgroundImageFix" result="effect1_dropShadow_13_2"/>
<feColorMatrix in="SourceAlpha" type="matrix" values="0 0 0 0 0 0 0 0 0 0 0 0 0 0 0 0 0 0 127 0" result="hardAlpha"/>
<feOffset dy="1.77778"/>
<feGaussianBlur stdDeviation="1.33333"/>
<feColorMatrix type="matrix" values="0 0 0 0 0.0705882 0 0 0 0 0.0941176 0 0 0 0 0.14902 0 0 0 0.08 0"/>
<feBlend mode="normal" in2="effect1_dropShadow_13_2" result="effect2_dropShadow_13_2"/>
<feBlend mode="normal" in="SourceGraphic" in2="effect2_dropShadow_13_2" result="shape"/>
</filter>
<filter id="filter5_dd_13_2" x="58.9998" y="23" width="30.0005" height="29.283" filterUnits="userSpaceOnUse" color-interpolation-filters="sRGB">
<feFlood flood-opacity="0" result="BackgroundImageFix"/>
<feColorMatrix in="SourceAlpha" type="matrix" values="0 0 0 0 0 0 0 0 0 0 0 0 0 0 0 0 0 0 127 0" result="hardAlpha"/>
<feOffset dy="2"/>
<feGaussianBlur stdDeviation="2"/>
<feColorMatrix type="matrix" values="0 0 0 0 0 0 0 0 0 0 0 0 0 0 0 0 0 0 0.06 0"/>
<feBlend mode="normal" in2="BackgroundImageFix" result="effect1_dropShadow_13_2"/>
<feColorMatrix in="SourceAlpha" type="matrix" values="0 0 0 0 0 0 0 0 0 0 0 0 0 0 0 0 0 0 127 0" result="hardAlpha"/>
<feOffset dy="3"/>
<feGaussianBlur stdDeviation="3"/>
<feColorMatrix type="matrix" values="0 0 0 0 0 0 0 0 0 0 0 0 0 0 0 0 0 0 0.1 0"/>
<feBlend mode="normal" in2="effect1_dropShadow_13_2" result="effect2_dropShadow_13_2"/>
<feBlend mode="normal" in="SourceGraphic" in2="effect2_dropShadow_13_2" result="shape"/>
</filter>
<radialGradient id="paint0_radial_13_2" cx="0" cy="0" r="1" gradientUnits="userSpaceOnUse" gradientTransform="translate(55 48) rotate(90) scale(69 72.9204)">
<stop offset="0.231884" stop-color="#C4C4C4"/>
<stop offset="0.724638" stop-color="#C4C4C4" stop-opacity="0"/>
</radialGradient>
</defs>
</svg>
