<svg width="112" height="96" viewBox="0 0 112 96" fill="none" xmlns="http://www.w3.org/2000/svg">
<rect width="112" height="96" fill="white"/>
<mask id="mask0_13_52" style="mask-type:alpha" maskUnits="userSpaceOnUse" x="4" y="4" width="104" height="88">
<path d="M108 4H4V92H108V4Z" fill="url(#paint0_radial_13_52)"/>
</mask>
<g mask="url(#mask0_13_52)">
<g opacity="0.1" filter="url(#filter0_f_13_52)">
<path d="M56 56C60.4183 56 64 52.4183 64 48C64 43.5817 60.4183 40 56 40C51.5817 40 48 43.5817 48 48C48 52.4183 51.5817 56 56 56Z" stroke="#111827" stroke-width="2"/>
</g>
<g opacity="0.1" filter="url(#filter1_f_13_52)">
<path d="M56 64C64.8366 64 72 56.8366 72 48C72 39.1634 64.8366 32 56 32C47.1634 32 40 39.1634 40 48C40 56.8366 47.1634 64 56 64Z" stroke="#111827" stroke-width="2"/>
</g>
<g opacity="0.1" filter="url(#filter2_f_13_52)">
<path d="M56 72C69.2548 72 80 61.2548 80 48C80 34.7452 69.2548 24 56 24C42.7452 24 32 34.7452 32 48C32 61.2548 42.7452 72 56 72Z" stroke="#111827" stroke-width="2"/>
</g>
<g opacity="0.1" filter="url(#filter3_f_13_52)">
<path d="M56 80C73.6731 80 88 65.6731 88 48C88 30.3269 73.6731 16 56 16C38.3269 16 24 30.3269 24 48C24 65.6731 38.3269 80 56 80Z" stroke="#111827" stroke-width="2"/>
</g>
<g opacity="0.1" filter="url(#filter4_f_13_52)">
<path d="M56 88C78.0914 88 96 70.0914 96 48C96 25.9086 78.0914 8 56 8C33.9086 8 16 25.9086 16 48C16 70.0914 33.9086 88 56 88Z" stroke="#111827" stroke-width="2"/>
</g>
<g opacity="0.1" filter="url(#filter5_f_13_52)">
<path d="M56 96C82.5097 96 104 74.5097 104 48C104 21.4903 82.5097 0 56 0C29.4903 0 8 21.4903 8 48C8 74.5097 29.4903 96 56 96Z" stroke="#111827" stroke-width="2"/>
</g>
<g opacity="0.1" filter="url(#filter6_f_13_52)">
<path d="M56 104C86.9279 104 112 78.9279 112 48C112 17.0721 86.9279 -8 56 -8C25.0721 -8 0 17.0721 0 48C0 78.9279 25.0721 104 56 104Z" stroke="#111827" stroke-width="2"/>
</g>
<g opacity="0.3" filter="url(#filter7_f_13_52)">
<path d="M42 73H70L75.1056 62.7889C76.4354 60.1292 74.5014 57 71.5279 57H40.4721C37.4986 57 35.5646 60.1292 36.8944 62.7889L42 73Z" fill="#4F46E5"/>
</g>
<g filter="url(#filter8_dd_13_52)">
<path d="M35 24H77C79.2091 24 81 25.7909 81 28V67C81 68.1046 80.1046 69 79 69H33C31.8954 69 31 68.1046 31 67V28C31 25.7909 32.7909 24 35 24Z" fill="white"/>
<path d="M35 23.5H77C79.4853 23.5 81.5 25.5147 81.5 28V67C81.5 68.3807 80.3807 69.5 79 69.5H33C31.6193 69.5 30.5 68.3807 30.5 67V28C30.5 25.5147 32.5147 23.5 35 23.5Z" stroke="#121826" stroke-opacity="0.08"/>
</g>
<g filter="url(#filter9_dd_13_52)">
<path d="M33 22H79C81.2091 22 83 23.7909 83 26V64C83 65.1046 82.1046 66 81 66H31C29.8954 66 29 65.1046 29 64V26C29 23.7909 30.7909 22 33 22Z" fill="white"/>
<path d="M33 21.5H79C81.4853 21.5 83.5 23.5147 83.5 26V64C83.5 65.3807 82.3807 66.5 81 66.5H31C29.6193 66.5 28.5 65.3807 28.5 64V26C28.5 23.5147 30.5147 21.5 33 21.5Z" stroke="#121826" stroke-opacity="0.08"/>
</g>
<path opacity="0.15" d="M30 44H82V45H30V44Z" fill="#9CA3AF"/>
<path opacity="0.15" d="M30 55H82V56H30V55Z" fill="#9CA3AF"/>
<path opacity="0.12" d="M40 34H39V66H40V34Z" fill="#9CA3AF"/>
<path opacity="0.12" d="M51 34H50V66H51V34Z" fill="#9CA3AF"/>
<path opacity="0.12" d="M62 34H61V66H62V34Z" fill="#9CA3AF"/>
<path opacity="0.12" d="M73 34H72V66H73V34Z" fill="#9CA3AF"/>
<path d="M83.5 32V32.5H83H29H28.5V32V25C28.5 23.067 30.067 21.5 32 21.5H80C81.933 21.5 83.5 23.067 83.5 25V32Z" fill="#3EE4DA" stroke="#3EE4DA"/>
<path d="M38 42C38 41.4477 37.5523 41 37 41C36.4477 41 36 41.4477 36 42C36 42.5523 36.4477 43 37 43C37.5523 43 38 42.5523 38 42Z" fill="#49DAEE"/>
<path d="M38 53C38 52.4477 37.5523 52 37 52C36.4477 52 36 52.4477 36 53C36 53.5523 36.4477 54 37 54C37.5523 54 38 53.5523 38 53Z" fill="#49DAEE"/>
<path d="M38 64C38 63.4477 37.5523 63 37 63C36.4477 63 36 63.4477 36 64C36 64.5523 36.4477 65 37 65C37.5523 65 38 64.5523 38 64Z" fill="#49DAEE"/>
<path d="M49 42C49 41.4477 48.5523 41 48 41C47.4477 41 47 41.4477 47 42C47 42.5523 47.4477 43 48 43C48.5523 43 49 42.5523 49 42Z" fill="#49DAEE"/>
<path d="M49 53C49 52.4477 48.5523 52 48 52C47.4477 52 47 52.4477 47 53C47 53.5523 47.4477 54 48 54C48.5523 54 49 53.5523 49 53Z" fill="#46C8E5"/>
<path d="M49 64C49 63.4477 48.5523 63 48 63C47.4477 63 47 63.4477 47 64C47 64.5523 47.4477 65 48 65C48.5523 65 49 64.5523 49 64Z" fill="#49DAEE"/>
<path d="M60 42C60 41.4477 59.5523 41 59 41C58.4477 41 58 41.4477 58 42C58 42.5523 58.4477 43 59 43C59.5523 43 60 42.5523 60 42Z" fill="#49DAEE"/>
<path d="M60 53C60 52.4477 59.5523 52 59 52C58.4477 52 58 52.4477 58 53C58 53.5523 58.4477 54 59 54C59.5523 54 60 53.5523 60 53Z" fill="#49DAEE"/>
<path d="M60 64C60 63.4477 59.5523 63 59 63C58.4477 63 58 63.4477 58 64C58 64.5523 58.4477 65 59 65C59.5523 65 60 64.5523 60 64Z" fill="#49DAEE"/>
<path d="M71 42C71 41.4477 70.5523 41 70 41C69.4477 41 69 41.4477 69 42C69 42.5523 69.4477 43 70 43C70.5523 43 71 42.5523 71 42Z" fill="#49DAEE"/>
<path d="M71 53C71 52.4477 70.5523 52 70 52C69.4477 52 69 52.4477 69 53C69 53.5523 69.4477 54 70 54C70.5523 54 71 53.5523 71 53Z" fill="#49DAEE"/>
<path d="M71 64C71 63.4477 70.5523 63 70 63C69.4477 63 69 63.4477 69 64C69 64.5523 69.4477 65 70 65C70.5523 65 71 64.5523 71 64Z" fill="#49DAEE"/>
<path d="M82 42C82 41.4477 81.5523 41 81 41C80.4477 41 80 41.4477 80 42C80 42.5523 80.4477 43 81 43C81.5523 43 82 42.5523 82 42Z" fill="#49DAEE"/>
<path d="M82 53C82 52.4477 81.5523 52 81 52C80.4477 52 80 52.4477 80 53C80 53.5523 80.4477 54 81 54C81.5523 54 82 53.5523 82 53Z" fill="#49DAEE"/>
<path d="M82 64C82 63.4477 81.5523 63 81 63C80.4477 63 80 63.4477 80 64C80 64.5523 80.4477 65 81 65C81.5523 65 82 64.5523 82 64Z" fill="#49DAEE"/>
</g>
<defs>
<filter id="filter0_f_13_52" x="46.5" y="38.5" width="19" height="19" filterUnits="userSpaceOnUse" color-interpolation-filters="sRGB">
<feFlood flood-opacity="0" result="BackgroundImageFix"/>
<feBlend mode="normal" in="SourceGraphic" in2="BackgroundImageFix" result="shape"/>
<feGaussianBlur stdDeviation="0.25" result="effect1_foregroundBlur_13_52"/>
</filter>
<filter id="filter1_f_13_52" x="38.5" y="30.5" width="35" height="35" filterUnits="userSpaceOnUse" color-interpolation-filters="sRGB">
<feFlood flood-opacity="0" result="BackgroundImageFix"/>
<feBlend mode="normal" in="SourceGraphic" in2="BackgroundImageFix" result="shape"/>
<feGaussianBlur stdDeviation="0.25" result="effect1_foregroundBlur_13_52"/>
</filter>
<filter id="filter2_f_13_52" x="30.5" y="22.5" width="51" height="51" filterUnits="userSpaceOnUse" color-interpolation-filters="sRGB">
<feFlood flood-opacity="0" result="BackgroundImageFix"/>
<feBlend mode="normal" in="SourceGraphic" in2="BackgroundImageFix" result="shape"/>
<feGaussianBlur stdDeviation="0.25" result="effect1_foregroundBlur_13_52"/>
</filter>
<filter id="filter3_f_13_52" x="22.5" y="14.5" width="67" height="67" filterUnits="userSpaceOnUse" color-interpolation-filters="sRGB">
<feFlood flood-opacity="0" result="BackgroundImageFix"/>
<feBlend mode="normal" in="SourceGraphic" in2="BackgroundImageFix" result="shape"/>
<feGaussianBlur stdDeviation="0.25" result="effect1_foregroundBlur_13_52"/>
</filter>
<filter id="filter4_f_13_52" x="14.5" y="6.5" width="83" height="83" filterUnits="userSpaceOnUse" color-interpolation-filters="sRGB">
<feFlood flood-opacity="0" result="BackgroundImageFix"/>
<feBlend mode="normal" in="SourceGraphic" in2="BackgroundImageFix" result="shape"/>
<feGaussianBlur stdDeviation="0.25" result="effect1_foregroundBlur_13_52"/>
</filter>
<filter id="filter5_f_13_52" x="6.5" y="-1.5" width="99" height="99" filterUnits="userSpaceOnUse" color-interpolation-filters="sRGB">
<feFlood flood-opacity="0" result="BackgroundImageFix"/>
<feBlend mode="normal" in="SourceGraphic" in2="BackgroundImageFix" result="shape"/>
<feGaussianBlur stdDeviation="0.25" result="effect1_foregroundBlur_13_52"/>
</filter>
<filter id="filter6_f_13_52" x="-1.5" y="-9.5" width="115" height="115" filterUnits="userSpaceOnUse" color-interpolation-filters="sRGB">
<feFlood flood-opacity="0" result="BackgroundImageFix"/>
<feBlend mode="normal" in="SourceGraphic" in2="BackgroundImageFix" result="shape"/>
<feGaussianBlur stdDeviation="0.25" result="effect1_foregroundBlur_13_52"/>
</filter>
<filter id="filter7_f_13_52" x="24.467" y="45" width="63.0661" height="40" filterUnits="userSpaceOnUse" color-interpolation-filters="sRGB">
<feFlood flood-opacity="0" result="BackgroundImageFix"/>
<feBlend mode="normal" in="SourceGraphic" in2="BackgroundImageFix" result="shape"/>
<feGaussianBlur stdDeviation="6" result="effect1_foregroundBlur_13_52"/>
</filter>
<filter id="filter8_dd_13_52" x="25" y="21" width="62" height="57" filterUnits="userSpaceOnUse" color-interpolation-filters="sRGB">
<feFlood flood-opacity="0" result="BackgroundImageFix"/>
<feColorMatrix in="SourceAlpha" type="matrix" values="0 0 0 0 0 0 0 0 0 0 0 0 0 0 0 0 0 0 127 0" result="hardAlpha"/>
<feOffset dy="3"/>
<feGaussianBlur stdDeviation="2.5"/>
<feColorMatrix type="matrix" values="0 0 0 0 0.0705882 0 0 0 0 0.0941176 0 0 0 0 0.14902 0 0 0 0.04 0"/>
<feBlend mode="normal" in2="BackgroundImageFix" result="effect1_dropShadow_13_52"/>
<feColorMatrix in="SourceAlpha" type="matrix" values="0 0 0 0 0 0 0 0 0 0 0 0 0 0 0 0 0 0 127 0" result="hardAlpha"/>
<feOffset dy="1"/>
<feGaussianBlur stdDeviation="1"/>
<feColorMatrix type="matrix" values="0 0 0 0 0.0705882 0 0 0 0 0.0941176 0 0 0 0 0.14902 0 0 0 0.03 0"/>
<feBlend mode="normal" in2="effect1_dropShadow_13_52" result="effect2_dropShadow_13_52"/>
<feBlend mode="normal" in="SourceGraphic" in2="effect2_dropShadow_13_52" result="shape"/>
</filter>
<filter id="filter9_dd_13_52" x="23" y="19" width="66" height="56" filterUnits="userSpaceOnUse" color-interpolation-filters="sRGB">
<feFlood flood-opacity="0" result="BackgroundImageFix"/>
<feColorMatrix in="SourceAlpha" type="matrix" values="0 0 0 0 0 0 0 0 0 0 0 0 0 0 0 0 0 0 127 0" result="hardAlpha"/>
<feOffset dy="3"/>
<feGaussianBlur stdDeviation="2.5"/>
<feColorMatrix type="matrix" values="0 0 0 0 0.0705882 0 0 0 0 0.0941176 0 0 0 0 0.14902 0 0 0 0.04 0"/>
<feBlend mode="normal" in2="BackgroundImageFix" result="effect1_dropShadow_13_52"/>
<feColorMatrix in="SourceAlpha" type="matrix" values="0 0 0 0 0 0 0 0 0 0 0 0 0 0 0 0 0 0 127 0" result="hardAlpha"/>
<feOffset dy="1"/>
<feGaussianBlur stdDeviation="1"/>
<feColorMatrix type="matrix" values="0 0 0 0 0.0705882 0 0 0 0 0.0941176 0 0 0 0 0.14902 0 0 0 0.03 0"/>
<feBlend mode="normal" in2="effect1_dropShadow_13_52" result="effect2_dropShadow_13_52"/>
<feBlend mode="normal" in="SourceGraphic" in2="effect2_dropShadow_13_52" result="shape"/>
</filter>
<radialGradient id="paint0_radial_13_52" cx="0" cy="0" r="1" gradientUnits="userSpaceOnUse" gradientTransform="translate(56 48) rotate(90) scale(69 72.9204)">
<stop offset="0.231884" stop-color="#C4C4C4"/>
<stop offset="0.724638" stop-color="#C4C4C4" stop-opacity="0"/>
</radialGradient>
</defs>
</svg>
